<?xml version="1.0" encoding="UTF-8"?>
<svg version="1.1" xmlns="http://www.w3.org/2000/svg" width="1024" height="1024">
<path d="M0 0 C76.89 0 153.78 0 233 0 C233 75.24 233 150.48 233 228 C207.59 228 182.18 228 156 228 C156.37125 220.905 156.7425 213.81 157.125 206.5 C157.71675854 192.35948559 157.71675854 192.35948559 152.78759766 179.54003906 C146.93632999 174.18173534 139.89825863 171.33176434 132.57128906 168.49414062 C126.88923927 166.11690897 121.93655178 162.75831877 116.8125 159.375 C114.83970557 158.13072434 112.86314658 156.89239677 110.8828125 155.66015625 C109.9124707 155.05445801 108.94212891 154.44875977 107.94238281 153.82470703 C103.04437568 150.78722733 98.11632717 147.79961805 93.1875 144.8125 C85.54270225 140.17905536 77.95319013 135.47112468 70.40844727 130.67675781 C60.39564202 124.3265121 50.27349909 118.15302409 40.16992188 111.94873047 C35.39958836 109.01613634 30.63622147 106.07235917 25.875 103.125 C25.10816895 102.65070557 24.34133789 102.17641113 23.55126953 101.68774414 C15.685207 96.81657389 7.84606528 91.9037908 0 87 C0 58.29 0 29.58 0 0 Z " fill="#17252F" transform="translate(397,278)"/>
<path d="M0 0 C91.08 0 182.16 0 276 0 C276 63.91426348 275.9950774 127.81297524 275.53643799 191.72302246 C275.46710683 201.45813972 275.4038179 211.19329911 275.33936501 220.92844963 C275.23092497 237.28566806 275.11493123 253.6428229 275 270 C236.06 270 197.12 270 157 270 C157 251.85 157 233.7 157 215 C155.35 214.34 153.7 213.68 152 213 C150.16588701 211.95771951 148.3546925 210.8745373 146.5625 209.76171875 C145.51344482 209.11307861 144.46438965 208.46443848 143.38354492 207.79614258 C142.2669751 207.10029053 141.15040527 206.40443848 140 205.6875 C138.82875758 204.96146848 137.65728665 204.2358055 136.4855957 203.51049805 C134.11359187 202.04133515 131.74294698 200.57001916 129.37353516 199.09667969 C125.4990209 196.68863739 121.61930977 194.28908961 117.73901367 191.89038086 C115.1792133 190.30737542 112.62067365 188.72235146 110.0625 187.13671875 C106.6680697 185.03287913 103.27219675 182.93140075 99.875 180.83203125 C89.67082348 174.52452044 79.48945857 168.18188865 69.32226562 161.81494141 C60.57395085 156.34372394 51.78954406 150.93243415 42.99145508 145.54174805 C41.97720459 144.91953369 40.9629541 144.29731934 39.91796875 143.65625 C38.59962036 142.84897461 38.59962036 142.84897461 37.25463867 142.02539062 C32.47983051 139.05398499 27.74465233 136.01932421 23 133 C22.67 178.21 22.34 223.42 22 270 C14.74 270 7.48 270 0 270 C0 180.9 0 91.8 0 0 Z M22 21 C22 49.71 22 78.42 22 108 C38.89318464 118.45898718 38.89318464 118.45898718 55.8125 128.875 C65.34040402 134.73050589 74.83742652 140.63340823 84.31616211 146.56811523 C97.34163244 154.72232385 110.41469732 162.79852828 123.50756836 170.84399414 C134.248061 177.44443429 144.96572224 184.07894455 155.64575195 190.77685547 C157.00639771 191.62981201 157.00639771 191.62981201 158.39453125 192.5 C159.287771 193.0878125 160.18101074 193.675625 161.10131836 194.28125 C164.02423447 196.11659757 164.02423447 196.11659757 167.54125977 197.40625 C171.60378674 199.2168717 174.06748889 200.62928486 177 204 C179.2813459 211.33179704 178.53214411 219.4406041 178.3125 227 C178.1578125 237.89 178.1578125 237.89 178 249 C203.41 249 228.82 249 255 249 C255 173.76 255 98.52 255 21 C178.11 21 101.22 21 22 21 Z " fill="#EDE5C8" transform="translate(375,257)"/>
<path d="M0 0 C16.64899359 -0.66374725 32.86343413 4.727556 45.4140625 15.71875 C46.89518117 17.17510079 48.35638861 18.65221687 49.7890625 20.15625 C50.35882813 20.71828125 50.92859375 21.2803125 51.515625 21.859375 C61.896693 32.8260417 65.31671441 47.96299024 65.2109375 62.63623047 C64.68015795 78.1999439 59.35504352 93.44885819 48.44921875 104.7734375 C33.72912325 117.95883875 15.59324786 123.16510299 -3.96972656 122.33105469 C-20.55590129 121.03740533 -35.11453933 112.41474309 -45.984375 100.15625 C-56.95647107 86.34366206 -61.11781677 68.52685626 -59.2109375 51.15625 C-56.81698898 35.65524688 -49.22739159 21.39427526 -36.55175781 11.91552734 C-25.4095825 4.38866621 -13.28227615 0.93867676 0 0 Z " fill="#ECE4C9" transform="translate(431.2109375,574.84375)"/>
<path d="M0 0 C8.25 0 16.5 0 25 0 C33.83452978 15.80915855 42.0206617 31.87195493 50.05566406 48.09765625 C50.476689 48.94635788 50.89771393 49.79505951 51.33149719 50.66947937 C52.12002212 52.25993295 52.90663344 53.8513375 53.69084167 55.44392395 C55.98914774 60.08152412 58.43718608 64.58783611 61.06239319 69.04960632 C62 71 62 71 62 74 C62.66 74 63.32 74 64 74 C64.07597412 73.34725098 64.15194824 72.69450195 64.23022461 72.02197266 C65.29093612 67.85784734 67.26567711 64.40596085 69.31640625 60.6484375 C70.23201387 58.94051901 71.1461754 57.23182468 72.05908203 55.52246094 C72.54048645 54.62281616 73.02189087 53.72317139 73.5178833 52.79626465 C76.03326379 48.05057254 78.46709747 43.26373575 80.90234375 38.4765625 C81.3971524 37.50571716 81.89196106 36.53487183 82.40176392 35.53460693 C84.43518413 31.54389155 86.4661384 27.55192502 88.49633789 23.55957031 C90.00516969 20.59363267 91.51615 17.6287972 93.02734375 14.6640625 C93.48358627 13.76515289 93.9398288 12.86624329 94.40989685 11.94009399 C94.83787064 11.10086395 95.26584442 10.26163391 95.70678711 9.39697266 C96.07855576 8.66596344 96.4503244 7.93495422 96.83335876 7.18179321 C98.13841082 4.74115111 99.57605506 2.37324157 101 0 C109.25 0 117.5 0 126 0 C126 38.61 126 77.22 126 117 C118.74 117 111.48 117 104 117 C103.67 91.59 103.34 66.18 103 40 C90.87581011 61.90471931 90.87581011 61.90471931 79 83.9375 C74.14669289 93.04711846 69.23451061 102.10300434 64 111 C63.34 111 62.68 111 62 111 C54.19663689 97.01741484 46.42041384 83.02320334 38.8293457 68.92382812 C33.61488721 59.24703903 28.29844359 49.63353379 23 40 C22.67 65.41 22.34 90.82 22 117 C14.74 117 7.48 117 0 117 C0 78.39 0 39.78 0 0 Z " fill="#EDE5C9" transform="translate(206,577)"/>
<path d="M0 0 C9.04094069 6.50117113 15.96179317 14.16106611 18.375 25.3125 C19.53807377 38.61004275 18.79956403 50.76554712 10.0703125 61.46875 C2.64644294 69.54263579 -6.17306478 75.64213763 -17.359375 76.6484375 C-25.46959257 76.83096002 -32.4173655 76.3699446 -39.625 72.3125 C-40.40359375 71.87679687 -41.1821875 71.44109375 -41.984375 70.9921875 C-52.62906503 64.45534765 -58.69824372 55.33088218 -61.625 43.3125 C-62.94160462 31.62456964 -61.72786417 20.89242811 -54.875 11.0625 C-41.30770245 -5.4821596 -18.9501909 -11.8479047 0 0 Z " fill="#17252E" transform="translate(455.625,600.6875)"/>
<path d="M0 0 C7.59 0 15.18 0 23 0 C25.57848117 5.15696234 27.85212297 9.92354577 29.890625 15.25 C30.15255142 15.92977402 30.41447784 16.60954803 30.68434143 17.30992126 C31.24875391 18.77523461 31.81149853 20.2411913 32.37271118 21.70773315 C33.89479659 25.68478819 35.42901751 29.65714057 36.96484375 33.62890625 C37.4479023 34.87855919 37.4479023 34.87855919 37.9407196 36.15345764 C40.3952063 42.48419357 42.9057895 48.79120474 45.44140625 55.08984375 C45.99032028 56.45431137 45.99032028 56.45431137 46.55032349 57.84634399 C48.3383925 62.28739805 50.13243468 66.72595282 51.93261719 71.16210938 C52.58671798 72.78380196 53.24069562 74.40554423 53.89453125 76.02734375 C54.19492813 76.76226547 54.49532501 77.49718719 54.80482483 78.25437927 C56.2345568 81.81114027 57.41982032 85.20359683 58 89 C58.66 89 59.32 89 60 89 C60.12189697 88.12714355 60.24379395 87.25428711 60.36938477 86.35498047 C60.97905382 83.11143724 61.87141347 80.38061561 63.08984375 77.3203125 C63.53602051 76.18634033 63.98219727 75.05236816 64.44189453 73.8840332 C64.80568207 72.97000229 64.80568207 72.97000229 65.17681885 72.0375061 C66.52357345 68.65149294 67.84993708 65.25752642 69.17578125 61.86328125 C69.46918396 61.11275986 69.76258667 60.36223846 70.06488037 59.588974 C74.78856364 47.45997994 79.29826841 35.2482587 83.83956909 23.05010986 C84.98771536 19.96636914 86.13831316 16.88355132 87.2890625 13.80078125 C87.63442551 12.86977097 87.97978851 11.93876068 88.33561707 10.97953796 C88.81844902 9.68702873 88.81844902 9.68702873 89.31103516 8.3684082 C89.59016754 7.61807816 89.86929993 6.86774811 90.15689087 6.09468079 C90.99393061 4.01507923 91.9974654 2.00506921 93 0 C100.59 0 108.18 0 116 0 C112.62497483 11.25008388 112.62497483 11.25008388 111.05148315 15.17529297 C110.69540985 16.06963547 110.33933655 16.96397797 109.97247314 17.88542175 C109.40191193 19.2995208 109.40191193 19.2995208 108.81982422 20.7421875 C108.41134247 21.76456009 108.00286072 22.78693268 107.58200073 23.84028625 C106.24369145 27.18686071 104.89927908 30.53094529 103.5546875 33.875 C102.61936805 36.20990118 101.68440645 38.54494574 100.74978638 40.88012695 C98.79720771 45.75625072 96.84199832 50.63131002 94.88427734 55.50537109 C92.37080964 61.76307673 89.86211278 68.02268301 87.35505486 74.28295898 C84.96461494 80.25168027 82.57237032 86.21967753 80.1796875 92.1875 C79.72183743 93.3296698 79.26398735 94.4718396 78.79226303 95.64862061 C77.5029491 98.863797 76.21239845 102.07847377 74.92138672 105.29296875 C74.53696411 106.25189529 74.1525415 107.21082184 73.75646973 108.19880676 C73.40603607 109.07059067 73.05560242 109.94237457 72.69454956 110.84057617 C72.38964537 111.60005051 72.08474117 112.35952484 71.77059746 113.14201355 C71.22851774 114.4490212 70.63279055 115.73441889 70 117 C62.74 117 55.48 117 48 117 C43.85863092 108.0477924 40.02558741 98.98502916 36.25 89.875 C35.59746671 88.30406135 34.94479404 86.73318058 34.29199219 85.16235352 C32.90969394 81.83509636 31.52861418 78.50733696 30.1484375 75.17919922 C28.34218998 70.8238952 26.53328359 66.46970131 24.72358704 62.11582947 C20.13756256 51.08196809 15.56273694 40.0435117 11 29 C10.69479431 28.2615686 10.38958862 27.52313721 10.07513428 26.7623291 C8.18942576 22.19836605 6.31113405 17.63143339 4.4375 13.0625 C3.97827148 11.94931396 3.51904297 10.83612793 3.04589844 9.68920898 C2.63758789 8.68962158 2.22927734 7.69003418 1.80859375 6.66015625 C1.45595459 5.80043213 1.10331543 4.94070801 0.73999023 4.05493164 C0 2 0 2 0 0 Z " fill="#ECE5C9" transform="translate(707,577)"/>
<path d="M0 0 C32.01 0 64.02 0 97 0 C97.495 10.395 97.495 10.395 98 21 C85.13 21 72.26 21 59 21 C59 52.68 59 84.36 59 117 C51.74 117 44.48 117 37 117 C37 85.32 37 53.64 37 21 C25.12 21 13.24 21 1 21 C0.67 14.07 0.34 7.14 0 0 Z " fill="#EBE2C4" transform="translate(519,577)"/>
<path d="M0 0 C6.93 0 13.86 0 21 0 C21 38.61 21 77.22 21 117 C14.07 117 7.14 117 0 117 C0 78.39 0 39.78 0 0 Z " fill="#EEE6CA" transform="translate(651,577)"/>
<path d="M0 0 C91.08 0 182.16 0 276 0 C276 110 276 110 275 157 C274.67 157 274.34 157 274 157 C273.10619919 148.1816437 272.86170811 139.46211238 272.88647461 130.60253906 C272.88678174 129.17933022 272.8866461 127.75612122 272.88610935 126.33291245 C272.88588574 122.55866943 272.89163596 118.78445882 272.89871979 115.01022339 C272.90446048 111.45456858 272.90468538 107.89892123 272.90539551 104.34326172 C272.91062037 93.97883694 272.92458163 83.61441805 272.9375 73.25 C272.958125 50.0675 272.97875 26.885 273 3 C183.9 3 94.8 3 3 3 C3 87.48 3 171.96 3 259 C2.67 259 2.34 259 2 259 C2.00037972 258.45657552 2.00075944 257.91315104 2.00115067 257.35325915 C2.02350604 225.17891469 2.04067506 193.00457229 2.05106533 160.83022187 C2.05231611 156.97104308 2.05361042 153.11186431 2.05493164 149.25268555 C2.05519395 148.48435986 2.05545626 147.71603418 2.05572652 146.92442589 C2.06008338 134.4673358 2.06797101 122.0102503 2.0771528 109.55316294 C2.0864889 96.78062824 2.09205552 84.00809595 2.09408849 71.23555797 C2.09546381 63.34782905 2.09981488 55.4601131 2.10791647 47.57238816 C2.11380406 41.53434897 2.11445907 35.49632106 2.11310768 29.45827866 C2.11338421 26.97374707 2.11539199 24.48921503 2.11920547 22.00468636 C2.1241357 18.6287618 2.12300078 15.25289409 2.12025452 11.87696838 C2.12316736 10.87990751 2.1260802 9.88284664 2.12908131 8.85557181 C2.12709026 7.95834809 2.12509921 7.06112438 2.12304783 6.13671207 C2.12342755 5.3563868 2.12380727 4.57606152 2.1241985 3.77209002 C2.19287613 1.97422961 2.19287613 1.97422961 1 1 C1 89.44 1 177.88 1 269 C7.93 269 14.86 269 22 269 C22 269.33 22 269.66 22 270 C14.74 270 7.48 270 0 270 C0 180.9 0 91.8 0 0 Z " fill="#C6C3AF" transform="translate(375,257)"/>
<path d="M0 0 C76.89 0 153.78 0 233 0 C233 75.24 233 150.48 233 228 C207.59 228 182.18 228 156 228 C155.6875 205.6875 155.6875 205.6875 155.61206055 198.65112305 C155.57977897 196.81296744 155.54640644 194.97483053 155.51171875 193.13671875 C155.50547485 192.18043579 155.49923096 191.22415283 155.49279785 190.2388916 C155.47285767 189.3256311 155.45291748 188.41237061 155.43237305 187.47143555 C155.42126999 186.67867722 155.41016693 185.88591888 155.39872742 185.06913757 C154.90919074 182.52875863 153.96094555 181.62487516 152 180 C153.65 180.66 155.3 181.32 157 182 C157 196.85 157 211.7 157 227 C181.42 227 205.84 227 231 227 C230.835 219.36875 230.67 211.7375 230.5 203.875 C229.23094678 136.58496399 230.26048189 69.29614756 231 2 C155.1 2 79.2 2 1 2 C1 28.4 1 54.8 1 82 C0.67 82 0.34 82 0 82 C0 54.94 0 27.88 0 0 Z " fill="#070F19" transform="translate(397,278)"/>
<path d="M0 0 C3.74551757 1.90119547 6.39321331 4.46132833 8.265625 8.23046875 C9.81597513 13.21177125 9.91216106 18.57359487 8.16015625 23.5078125 C5.65516069 28.19970895 2.89429631 30.69539081 -2.07421875 32.3515625 C-7.0428219 32.87322307 -10.92940854 32.9239676 -15.44921875 30.6640625 C-19.50362382 27.0923247 -22.72471611 23.88019491 -23.27734375 18.30078125 C-23.38300458 13.20264617 -23.03546841 9.69472867 -20.07421875 5.3515625 C-14.16338125 -0.4647016 -8.16490149 -2.55249275 0 0 Z " fill="#BCB07D" transform="translate(714.07421875,749.6484375)"/>
<path d="M0 0 C2.701875 -0.061875 5.40375 -0.12375 8.1875 -0.1875 C9.02949951 -0.21481201 9.87149902 -0.24212402 10.73901367 -0.27026367 C15.31952096 -0.32089807 18.28298447 0.01917007 22 3 C23.52846661 6.05693322 23.23242445 8.62984547 23 12 C21.5 14.4375 21.5 14.4375 20 16 C20.825 16.70125 21.65 17.4025 22.5 18.125 C25 21 25 21 25.5625 24 C24.87206143 27.68233904 23.63186072 29.36813928 21 32 C18.23434618 32.92188461 16.61716298 33.11785222 13.76953125 33.09765625 C12.68442261 33.09390991 12.68442261 33.09390991 11.57739258 33.09008789 C10.20877075 33.07643188 10.20877075 33.07643188 8.8125 33.0625 C5.904375 33.041875 2.99625 33.02125 0 33 C0 22.11 0 11.22 0 0 Z " fill="#A8A074" transform="translate(206,749)"/>
<path d="M0 0 C1.65 0 3.3 0 5 0 C7.29561809 6.59379663 9.22089072 13.24947898 11 20 C13.7527517 13.43252132 16.07443364 6.85618326 18 0 C19.98 0 21.96 0 24 0 C24.26478149 0.90093384 24.26478149 0.90093384 24.53491211 1.82006836 C25.33245 4.52687158 26.13490682 7.23219163 26.9375 9.9375 C27.35418945 11.35579102 27.35418945 11.35579102 27.77929688 12.80273438 C28.04677734 13.70185547 28.31425781 14.60097656 28.58984375 15.52734375 C28.83597412 16.35999756 29.08210449 17.19265137 29.33569336 18.05053711 C29.83330673 19.98038525 29.83330673 19.98038525 31 21 C31.21934204 20.09906616 31.21934204 20.09906616 31.44311523 19.17993164 C32.10425632 16.47321322 32.77080352 13.76785515 33.4375 11.0625 C33.66759766 10.11697266 33.89769531 9.17144531 34.13476562 8.19726562 C34.35712891 7.29814453 34.57949219 6.39902344 34.80859375 5.47265625 C35.01282959 4.64000244 35.21706543 3.80734863 35.42749023 2.94946289 C36 1 36 1 37 0 C38.66617115 -0.04063832 40.33388095 -0.042721 42 0 C40.63942152 11.33033456 37.25678114 22.09912766 34 33 C32.02 33 30.04 33 28 33 C24.535 21.615 24.535 21.615 21 10 C18.69 17.59 16.38 25.18 14 33 C12.02 33 10.04 33 8 33 C6.85406227 28.94502619 5.71494043 24.88821771 4.58203125 20.82958984 C4.1958688 19.4498366 3.80786522 18.07059725 3.41796875 16.69189453 C2.8570983 14.70738607 2.30292643 12.72110941 1.75 10.734375 C1.41484375 9.54038086 1.0796875 8.34638672 0.734375 7.11621094 C0 4 0 4 0 0 Z " fill="#AFA677" transform="translate(379,749)"/>
<path d="M0 0 C2.68125 -0.103125 5.3625 -0.20625 8.125 -0.3125 C9.37434326 -0.38078003 9.37434326 -0.38078003 10.64892578 -0.45043945 C14.7304288 -0.52591463 17.26619283 -0.23080751 20.4921875 2.39453125 C23.21547974 5.22387069 23.90937884 5.98051191 24.25 9.8125 C23.96458387 13.45155569 23.18774348 15.10905326 21 18 C19.68559344 19.0247503 18.35451851 20.02888859 17 21 C17.433125 21.69867187 17.86625 22.39734375 18.3125 23.1171875 C18.869375 24.02726563 19.42625 24.93734375 20 25.875 C20.556875 26.77992188 21.11375 27.68484375 21.6875 28.6171875 C23 31 23 31 23 33 C20.22265625 33.37109375 20.22265625 33.37109375 17 33 C15.05859375 30.41015625 15.05859375 30.41015625 13.4375 27.0625 C11.912468 23.74888869 11.912468 23.74888869 10 21 C8.35 20.67 6.7 20.34 5 20 C5 24.29 5 28.58 5 33 C3.35 33 1.7 33 0 33 C0 22.11 0 11.22 0 0 Z " fill="#AEA577" transform="translate(620,749)"/>
<path d="M0 0 C0.33 0 0.66 0 1 0 C1 37.29 1 74.58 1 113 C-37.94 113 -76.88 113 -117 113 C-117 94.85 -117 76.7 -117 58 C-118.65 57.34 -120.3 56.68 -122 56 C-123.83411299 54.95771951 -125.6453075 53.8745373 -127.4375 52.76171875 C-128.48752197 52.11251465 -129.53754395 51.46331055 -130.61938477 50.79443359 C-131.73498779 50.09914551 -132.85059082 49.40385742 -134 48.6875 C-135.16246454 47.96661364 -136.32514603 47.246077 -137.48803711 46.52587891 C-139.85114391 45.06167027 -142.21291921 43.59534814 -144.57373047 42.12744141 C-147.7329806 40.16409255 -150.89868157 38.21137098 -154.06640625 36.26171875 C-155.89846059 35.13284997 -157.73049312 34.0039458 -159.5625 32.875 C-160.7990332 32.11449341 -160.7990332 32.11449341 -162.06054688 31.33862305 C-167.45250641 28.00624608 -172.74780921 24.54846 -178 21 C-177.34 20.67 -176.68 20.34 -176 20 C-173.79882812 21.10131836 -173.79882812 21.10131836 -171.03125 22.83984375 C-169.99734131 23.48324707 -168.96343262 24.12665039 -167.89819336 24.78955078 C-166.76538826 25.5054168 -165.63265906 26.22140293 -164.5 26.9375 C-163.33718448 27.66472315 -162.17384689 28.39111215 -161.01000977 29.11669922 C-158.57519334 30.63541089 -156.14271109 32.15777175 -153.71142578 33.68212891 C-150.09004174 35.9485984 -146.45222878 38.18748995 -142.80859375 40.41796875 C-142.22860626 40.77324142 -141.64861877 41.1285141 -141.05105591 41.49455261 C-138.27419988 43.19515159 -135.49664995 44.89461271 -132.71875 46.59350586 C-131.70683594 47.21491455 -130.69492187 47.83632324 -129.65234375 48.4765625 C-128.77570068 49.01361816 -127.89905762 49.55067383 -126.99584961 50.10400391 C-122.95077482 52.6640276 -118.98311013 55.34459325 -115 58 C-115 75.49 -115 92.98 -115 111 C-77.05 111 -39.1 111 0 111 C0 74.37 0 37.74 0 0 Z " fill="#EFEDE4" transform="translate(649,414)"/>
<path d="M0 0 C16 0 16 0 22 4 C23.61540873 7.23081745 23.5896275 10.50759098 23 14 C21.04342803 17.52787301 18.89144937 19.70285021 15 21 C13.27204648 21.06802967 11.54164635 21.08495645 9.8125 21.0625 C8.224375 21.041875 6.63625 21.02125 5 21 C5 24.96 5 28.92 5 33 C3.35 33 1.7 33 0 33 C0 22.11 0 11.22 0 0 Z " fill="#AEA474" transform="translate(657,749)"/>
<path d="M0 0 C15 0 15 0 21 3 C23.46406448 6.69609672 23.67864807 9.71027391 23 14 C21.2395325 16.99931499 19.77924074 18.53245555 16.8125 20.3125 C12.80634446 21.29178247 9.12072452 21.1230067 5 21 C5 24.96 5 28.92 5 33 C3.35 33 1.7 33 0 33 C0 22.11 0 11.22 0 0 Z " fill="#AEA576" transform="translate(546,749)"/>
<path d="M0 0 C32.01 0 64.02 0 97 0 C97.495 10.395 97.495 10.395 98 21 C85.13 21 72.26 21 59 21 C59 52.68 59 84.36 59 117 C52.07 117 45.14 117 38 117 C38 84.99 38 52.98 38 20 C38.33 20 38.66 20 39 20 C39 51.68 39 83.36 39 116 C45.27 116 51.54 116 58 116 C57.99476318 113.09711182 57.98952637 110.19422363 57.98413086 107.20336914 C57.96759652 97.63600815 57.9565294 88.06864654 57.94818783 78.50127506 C57.94295856 72.69786387 57.93586013 66.89446725 57.92456055 61.09106445 C57.91373322 55.49549147 57.9077235 49.89993255 57.90512276 44.3043499 C57.90326823 42.16441056 57.89964709 40.02447204 57.89426994 37.88453865 C57.88706156 34.89835034 57.88600897 31.91222093 57.88647461 28.92602539 C57.88287933 28.03194977 57.87928406 27.13787415 57.87557983 26.21670532 C57.88594784 20.11405216 57.88594784 20.11405216 59 19 C61.73894085 18.91141354 64.4525327 18.88476521 67.19140625 18.90234375 C68.01124496 18.9037587 68.83108368 18.90517365 69.67576599 18.90663147 C72.30471382 18.91224711 74.93357773 18.92480221 77.5625 18.9375 C79.34049357 18.94251299 81.11848846 18.94707624 82.89648438 18.95117188 C87.26438158 18.96137248 91.6320964 18.98094468 96 19 C96 13.06 96 7.12 96 1 C64.98 1 33.96 1 2 1 C2 6.94 2 12.88 2 19 C13.55 19 25.1 19 37 19 C37 19.33 37 19.66 37 20 C25.12 20 13.24 20 1 20 C0.67 13.4 0.34 6.8 0 0 Z " fill="#F6F7F1" transform="translate(519,577)"/>
<path d="M0 0 C1.0305249 0.00410889 2.0610498 0.00821777 3.12280273 0.01245117 C4.23977539 0.01438477 5.35674805 0.01631836 6.50756836 0.01831055 C7.67868164 0.03055664 8.84979492 0.04280273 10.05639648 0.05541992 C11.23137695 0.05606445 12.40635742 0.05670898 13.61694336 0.05737305 C22.35377508 0.10279852 22.35377508 0.10279852 23.49389648 1.24291992 C23.59191301 2.78412833 23.62021495 4.3298236 23.62088013 5.87414551 C23.62369995 6.87535934 23.62651978 7.87657318 23.62942505 8.90812683 C23.62740082 10.01569839 23.62537659 11.12326996 23.62329102 12.2644043 C23.62504333 13.42361893 23.62679565 14.58283356 23.62860107 15.7771759 C23.63302243 19.63035556 23.6300806 23.48348976 23.62670898 27.33666992 C23.62738194 30.00085508 23.62835018 32.66503883 23.62960815 35.32922363 C23.6314297 40.92139178 23.62902394 46.51354674 23.62426758 52.10571289 C23.61882498 58.57964494 23.62058765 65.0535455 23.62609398 71.52747679 C23.63062554 77.07651397 23.63127545 82.62554166 23.62865531 88.1745801 C23.62709277 91.49287301 23.62728823 94.81114778 23.6301918 98.12944031 C23.63271665 101.82679406 23.62888009 105.5240864 23.62329102 109.22143555 C23.62531525 110.32900711 23.62733948 111.43657867 23.62942505 112.57771301 C23.62660522 113.57892685 23.6237854 114.58014069 23.62088013 115.61169434 C23.6205031 116.48702065 23.62012608 117.36234695 23.61973763 118.2641983 C23.49389648 120.24291992 23.49389648 120.24291992 22.49389648 121.24291992 C18.85490473 121.49448261 15.20305976 121.42814218 11.55639648 121.43041992 C10.52836914 121.44266602 9.5003418 121.45491211 8.44116211 121.4675293 C7.45954102 121.46946289 6.47791992 121.47139648 5.46655273 121.47338867 C4.10929077 121.479552 4.10929077 121.479552 2.72460938 121.48583984 C0.49389648 121.24291992 0.49389648 121.24291992 -1.50610352 119.24291992 C-1.78457642 116.30697632 -1.78457642 116.30697632 -1.82495117 112.49829102 C-1.84001961 111.45909767 -1.84001961 111.45909767 -1.85539246 110.39891052 C-1.88632905 108.10473475 -1.90328827 105.8106762 -1.92016602 103.51635742 C-1.93886928 101.927368 -1.95844206 100.33838859 -1.97885132 98.74942017 C-2.03026761 94.56390275 -2.06984228 90.37835309 -2.10699463 86.19268799 C-2.14697494 81.92289189 -2.19809444 77.65323098 -2.24829102 73.38354492 C-2.34516266 65.00342879 -2.42953123 56.62324599 -2.50610352 48.24291992 C-4.98110352 52.69791992 -4.98110352 52.69791992 -7.50610352 57.24291992 C-7.83610352 56.58291992 -8.16610352 55.92291992 -8.50610352 55.24291992 C-7.26485169 52.63130261 -5.97505111 50.13790206 -4.56860352 47.61791992 C-4.1825293 46.91151367 -3.79645508 46.20510742 -3.39868164 45.47729492 C-2.44161656 43.72858341 -1.47476321 41.9852356 -0.50610352 40.24291992 C-0.17610352 40.24291992 0.15389648 40.24291992 0.49389648 40.24291992 C0.49389648 66.31291992 0.49389648 92.38291992 0.49389648 119.24291992 C7.75389648 119.24291992 15.01389648 119.24291992 22.49389648 119.24291992 C22.49389648 80.63291992 22.49389648 42.02291992 22.49389648 2.24291992 C10.11889648 2.73791992 10.11889648 2.73791992 -2.50610352 3.24291992 C-3.77067383 5.82426758 -3.77067383 5.82426758 -5.06079102 8.45776367 C-6.16724648 10.69880482 -7.27403449 12.93968181 -8.38110352 15.18041992 C-8.93668945 16.31672852 -9.49227539 17.45303711 -10.06469727 18.6237793 C-10.5996582 19.70336914 -11.13461914 20.78295898 -11.68579102 21.89526367 C-12.17805176 22.89549561 -12.6703125 23.89572754 -13.17749023 24.92626953 C-14.50610352 27.24291992 -14.50610352 27.24291992 -16.50610352 28.24291992 C-14.83047381 22.49246342 -12.19260177 17.31986218 -9.50610352 11.99291992 C-9.05493164 11.0828418 -8.60375977 10.17276367 -8.13891602 9.23510742 C-7.70321289 8.3662793 -7.26750977 7.49745117 -6.81860352 6.60229492 C-6.42286133 5.81306641 -6.02711914 5.02383789 -5.61938477 4.21069336 C-4.03998828 1.4190408 -3.26942231 0.31690942 0 0 Z " fill="#050C15" transform="translate(309.506103515625,574.757080078125)"/>
<path d="M0 0 C6.93 0 13.86 0 21 0 C21 1.65 21 3.3 21 5 C15.72 5 10.44 5 5 5 C5 7.97 5 10.94 5 14 C10.28 14 15.56 14 21 14 C21 15.65 21 17.3 21 19 C15.72 19 10.44 19 5 19 C5 21.97 5 24.94 5 28 C10.61 28 16.22 28 22 28 C22 29.65 22 31.3 22 33 C14.74 33 7.48 33 0 33 C0 22.11 0 11.22 0 0 Z " fill="#B3A979" transform="translate(772,749)"/>
<path d="M0 0 C1.65 0 3.3 0 5 0 C5.02187378 1.01368652 5.02187378 1.01368652 5.04418945 2.04785156 C5.11875411 5.11580522 5.21538655 8.18268076 5.3125 11.25 C5.33505859 12.31347656 5.35761719 13.37695312 5.38085938 14.47265625 C5.41630859 15.49746094 5.45175781 16.52226563 5.48828125 17.578125 C5.51446533 18.52075195 5.54064941 19.46337891 5.56762695 20.43457031 C6.07399111 23.43901671 6.85118061 24.85397977 9 27 C13.37855495 27.46913089 15.29584707 27.46943529 19 25 C19.51012565 22.38803709 19.51012565 22.38803709 19.51171875 19.3359375 C19.54716797 18.21445312 19.58261719 17.09296875 19.61914062 15.9375 C19.64169922 14.761875 19.66425781 13.58625 19.6875 12.375 C19.72166016 11.19164062 19.75582031 10.00828125 19.79101562 8.7890625 C19.87370575 5.8594694 19.94278714 2.9301836 20 0 C21.98 0 23.96 0 26 0 C26.08751413 3.87485635 26.14056435 7.74945643 26.1875 11.625 C26.21263672 12.71941406 26.23777344 13.81382812 26.26367188 14.94140625 C26.35624185 25.12410385 26.35624185 25.12410385 23 30 C19.1330039 33.62530884 14.73462745 33.55276423 9.66796875 33.4296875 C5.48552067 32.75608678 3.81122453 31.1071429 1 28 C-0.35700647 25.28598706 -0.1123861 23.15153684 -0.09765625 20.1171875 C-0.09443359 18.95058594 -0.09121094 17.78398438 -0.08789062 16.58203125 C-0.07951172 15.35871094 -0.07113281 14.13539063 -0.0625 12.875 C-0.05798828 11.64394531 -0.05347656 10.41289063 -0.04882812 9.14453125 C-0.0370133 6.09630608 -0.02054028 3.04817686 0 0 Z " fill="#A89F73" transform="translate(581,749)"/>
<path d="M0 0 C3.24544251 0.04071344 4.2295947 0.30007938 7.125 2.0625 C10.2592654 5.38113395 11.13789429 7.10175833 11.5625 11.6875 C11.22144393 15.64375036 10.35164065 17.96544268 8.25 21.3125 C4.23141405 23.9915573 0.97358279 24.00860694 -3.75 23.3125 C-6.62029869 21.51856332 -8.24131638 20.32986724 -9.75 17.3125 C-10.37165748 11.79751005 -10.81404786 7.67666392 -7.3125 3.1875 C-6.466875 2.56875 -5.62125 1.95 -4.75 1.3125 C-3.75 0.3125 -3.75 0.3125 0 0 Z " fill="#15212D" transform="translate(706.75,753.6875)"/>
<path d="M0 0 C1.65 0 3.3 0 5 0 C5 4.62 5 9.24 5 14 C10.28 14 15.56 14 21 14 C21 9.38 21 4.76 21 0 C22.65 0 24.3 0 26 0 C26 10.89 26 21.78 26 33 C24.35 33 22.7 33 21 33 C21 28.05 21 23.1 21 18 C15.72 18 10.44 18 5 18 C5 22.95 5 27.9 5 33 C3.35 33 1.7 33 0 33 C0 22.11 0 11.22 0 0 Z " fill="#B4AA79" transform="translate(486,749)"/>
<path d="M0 0 C5.57608696 2.15217391 5.57608696 2.15217391 7 5 C6.01 6.485 6.01 6.485 5 8 C4.360625 7.67 3.72125 7.34 3.0625 7 C-1.01236841 5.66943072 -4.75190425 5.83340801 -9 6 C-9.66 7.65 -10.32 9.3 -11 11 C-10.28714844 11.17015625 -9.57429687 11.3403125 -8.83984375 11.515625 C5.0140313 15.02104695 5.0140313 15.02104695 9 21 C9.50326079 24.85833276 9.31669325 26.50857943 7.1875 29.8125 C3.80721891 33.19278109 0.78546285 33.20261158 -3.8125 33.3125 C-9.24344707 33.2927511 -11.96431482 32.58727572 -16 29 C-15.34 27.68 -14.68 26.36 -14 25 C-13.30519531 25.32742188 -12.61039063 25.65484375 -11.89453125 25.9921875 C-8.63631172 27.12662831 -6.12550498 27.20056055 -2.6875 27.125 C-1.61886719 27.10695313 -0.55023437 27.08890625 0.55078125 27.0703125 C1.76314453 27.03550781 1.76314453 27.03550781 3 27 C3 25.02 3 23.04 3 21 C2.20335937 20.82984375 1.40671875 20.6596875 0.5859375 20.484375 C-5.38986659 19.11764608 -10.26079204 17.97068775 -15 14 C-16.42662219 11.14675563 -16.31033868 9.16545451 -16 6 C-11.60539197 -0.59191204 -7.50278015 -0.66640314 0 0 Z " fill="#ACA377" transform="translate(751,749)"/>
<path d="M0 0 C1.65 0 3.3 0 5 0 C5.01458252 0.7113208 5.02916504 1.4226416 5.04418945 2.15551758 C5.11861006 5.37506332 5.21529 8.59356518 5.3125 11.8125 C5.33505859 12.93205078 5.35761719 14.05160156 5.38085938 15.20507812 C5.41630859 16.27822266 5.45175781 17.35136719 5.48828125 18.45703125 C5.51446533 19.44678955 5.54064941 20.43654785 5.56762695 21.45629883 C5.81139559 24.02024004 5.81139559 24.02024004 7.31323242 25.82299805 C10.14804252 27.80108742 12.67115086 27.35666241 16 27 C17.79348587 25.88686485 17.79348587 25.88686485 19 24 C19.50479657 21.3931977 19.50479657 21.3931977 19.51171875 18.45703125 C19.54716797 17.38388672 19.58261719 16.31074219 19.61914062 15.20507812 C19.64169922 14.08552734 19.66425781 12.96597656 19.6875 11.8125 C19.72166016 10.68134766 19.75582031 9.55019531 19.79101562 8.38476562 C19.87356314 5.5899426 19.94269182 2.79543602 20 0 C21.65 0 23.3 0 25 0 C25.14536813 4.39548491 25.23409948 8.79035087 25.3125 13.1875 C25.35439453 14.43337891 25.39628906 15.67925781 25.43945312 16.96289062 C25.57760414 27.26895645 25.57760414 27.26895645 22.66796875 30.30078125 C17.62320917 33.51376868 12.81983986 33.52062465 7 33 C4.04334644 31.76806102 2.60814103 30.94516698 0.88720703 28.27050781 C-0.24555346 25.37158857 -0.22580163 23.03176617 -0.1953125 19.921875 C-0.18886719 18.76171875 -0.18242187 17.6015625 -0.17578125 16.40625 C-0.15902344 15.1996875 -0.14226562 13.993125 -0.125 12.75 C-0.11597656 11.52796875 -0.10695312 10.3059375 -0.09765625 9.046875 C-0.07409513 6.03105218 -0.04119706 3.01562508 0 0 Z " fill="#B2A878" transform="translate(243,749)"/>
<path d="M0 0 C2.701875 -0.061875 5.40375 -0.12375 8.1875 -0.1875 C9.02949951 -0.21481201 9.87149902 -0.24212402 10.73901367 -0.27026367 C15.31952096 -0.32089807 18.28298447 0.01917007 22 3 C23.4783226 5.95664519 23.06032783 8.74229737 23 12 C22.01 12.495 22.01 12.495 21 13 C21.020625 11.88625 21.04125 10.7725 21.0625 9.625 C21.26380718 6.16784079 21.26380718 6.16784079 20 4 C20.061875 4.928125 20.12375 5.85625 20.1875 6.8125 C20 10 20 10 18.5 11.875 C18.005 12.24625 17.51 12.6175 17 13 C17.061875 12.05125 17.12375 11.1025 17.1875 10.125 C17.125625 9.09375 17.06375 8.0625 17 7 C13.95516215 4.9701081 12.97945019 4.73196335 9.5 4.5 C6.02054981 4.26803665 5.04483785 4.0298919 2 2 C2 11.24 2 20.48 2 30 C13.76995198 29.12461533 13.76995198 29.12461533 18 26 C18.16666667 22.5 18.16666667 22.5 18 19 C18.33 18.34 18.66 17.68 19 17 C20.875 17.3125 20.875 17.3125 23 18 C25.34168764 21.51253146 25.49623677 22.86469356 25 27 C22.84909549 30.33761045 21.79587201 31.73470933 18 33 C16.59175107 33.08021999 15.18002769 33.10765977 13.76953125 33.09765625 C12.68442261 33.09390991 12.68442261 33.09390991 11.57739258 33.09008789 C10.20877075 33.07643188 10.20877075 33.07643188 8.8125 33.0625 C5.904375 33.041875 2.99625 33.02125 0 33 C0 22.11 0 11.22 0 0 Z " fill="#AEA576" transform="translate(206,749)"/>
<path d="M0 0 C8.58 0 17.16 0 26 0 C26 1.65 26 3.3 26 5 C22.37 5 18.74 5 15 5 C15 14.24 15 23.48 15 33 C13.35 33 11.7 33 10 33 C10 23.76 10 14.52 10 5 C6.7 5 3.4 5 0 5 C0 3.35 0 1.7 0 0 Z " fill="#ADA478" transform="translate(450,749)"/>
<path d="M0 0 C8.25 0 16.5 0 25 0 C25 1.65 25 3.3 25 5 C22.03 5 19.06 5 16 5 C16 14.24 16 23.48 16 33 C14.35 33 12.7 33 11 33 C11 23.76 11 14.52 11 5 C7.37 5 3.74 5 0 5 C0 3.35 0 1.7 0 0 Z " fill="#B1A677" transform="translate(326,749)"/>
<path d="M0 0 C1.65 0 3.3 0 5 0 C5 9.24 5 18.48 5 28 C10.28 28 15.56 28 21 28 C21 29.65 21 31.3 21 33 C14.07 33 7.14 33 0 33 C0 22.11 0 11.22 0 0 Z " fill="#BCB07B" transform="translate(302,749)"/>
<path d="M0 0 C0.33 0 0.66 0 1 0 C1.33 4.62 1.66 9.24 2 14 C2.66 11.03 3.32 8.06 4 5 C4.33 5 4.66 5 5 5 C5 8.3 5 11.6 5 15 C7.413125 14.814375 7.413125 14.814375 9.875 14.625 C10.77992188 14.55539062 11.68484375 14.48578125 12.6171875 14.4140625 C15.17941903 14.20431868 15.17941903 14.20431868 17 12 C16.69347955 9.0574037 16.32728846 6.65457692 15 4 C15.99 4.33 16.98 4.66 18 5 C19.1875 8.5625 19.1875 8.5625 20 12 C20.33 12 20.66 12 21 12 C21.33 10.35 21.66 8.7 22 7 C22.33 7 22.66 7 23 7 C23.34559158 9.90296927 23.51874316 12.12537491 21.9921875 14.69921875 C19.80520769 17.40347821 18.33330702 18.88889766 15 20 C13.27204648 20.06802967 11.54164635 20.08495645 9.8125 20.0625 C8.224375 20.041875 6.63625 20.02125 5 20 C5 23.96 5 27.92 5 32 C3.35 32 1.7 32 0 32 C0 21.44 0 10.88 0 0 Z " fill="#CCBF85" transform="translate(657,750)"/>
<path d="M0 0 C1.98 0 3.96 0 6 0 C6 10.89 6 21.78 6 33 C4.02 33 2.04 33 0 33 C0 22.11 0 11.22 0 0 Z " fill="#A69D72" transform="translate(282,749)"/>
<path d="M0 0 C2.66232739 1.07526097 4.62242962 2.34603799 7 4 C6.67 5.65 6.34 7.3 6 9 C5.5153125 8.62746094 5.030625 8.25492188 4.53125 7.87109375 C0.75470057 5.20572137 -1.78587021 3.54772524 -6.5 4.1875 C-7.655 4.455625 -8.81 4.72375 -10 5 C-10 5.66 -10 6.32 -10 7 C-10.64453125 7.56203125 -11.2890625 8.1240625 -11.953125 8.703125 C-14.6579651 11.73832725 -14.58951956 13.73798895 -14.75 17.75 C-14.80671875 18.92046875 -14.8634375 20.0909375 -14.921875 21.296875 C-14.94765625 22.18890625 -14.9734375 23.0809375 -15 24 C-16.65 24 -18.3 24 -20 24 C-21.72237197 18.8328841 -21.65561622 13.89400242 -19.875 8.75 C-14.72364804 1.19468379 -8.91725888 -1.023292 0 0 Z " fill="#ACA275" transform="translate(712,749)"/>
<path d="M0 0 C1.65 0 3.3 0 5 0 C5.02187378 1.01368652 5.02187378 1.01368652 5.04418945 2.04785156 C5.11875411 5.11580522 5.21538655 8.18268076 5.3125 11.25 C5.33505859 12.31347656 5.35761719 13.37695312 5.38085938 14.47265625 C5.41630859 15.49746094 5.45175781 16.52226563 5.48828125 17.578125 C5.51446533 18.52075195 5.54064941 19.46337891 5.56762695 20.43457031 C6.06872223 23.40775449 6.9503373 24.81737265 9 27 C11.0316566 27.68850829 11.0316566 27.68850829 13.1875 27.75 C14.445625 27.8325 15.70375 27.915 17 28 C16.67 28.66 16.34 29.32 16 30 C13.36 30 10.72 30 8 30 C8.33 30.33 8.66 30.66 9 31 C7.68 31.33 6.36 31.66 5 32 C1.74713276 29.16206543 0.19838603 27.41006688 -0.41259766 23.06738281 C-0.49170902 19.57525426 -0.43541588 16.11581092 -0.3125 12.625 C-0.28994141 11.41199219 -0.26738281 10.19898438 -0.24414062 8.94921875 C-0.1853937 5.96487498 -0.10329222 2.98307933 0 0 Z " fill="#BBAF7B" transform="translate(581,749)"/>
<path d="M0 0 C5.61 0 11.22 0 17 0 C17 0.66 17 1.32 17 2 C12.05 2 7.1 2 2 2 C2 11.57 2 21.14 2 31 C2.66 31 3.32 31 4 31 C3.91621094 29.7934375 3.83242188 28.586875 3.74609375 27.34375 C3.64283711 25.72919169 3.53999464 24.11460686 3.4375 22.5 C3.38142578 21.70851563 3.32535156 20.91703125 3.26757812 20.1015625 C2.94810516 14.90480221 3.20313086 10.14718438 4 5 C4.33 5 4.66 5 5 5 C5 8.63 5 12.26 5 16 C7.97 16 10.94 16 14 16 C13.01 16.99 12.02 17.98 11 19 C12.98 21.97 12.98 21.97 15 25 C14.67 25.66 14.34 26.32 14 27 C13.443125 26.030625 12.88625 25.06125 12.3125 24.0625 C10.11505259 20.44722852 10.11505259 20.44722852 5 20 C5 24.29 5 28.58 5 33 C3.35 33 1.7 33 0 33 C0 22.11 0 11.22 0 0 Z " fill="#B5AB7B" transform="translate(620,749)"/>
<path d="M0 0 C1.65 0 3.3 0 5 0 C5 10.89 5 21.78 5 33 C3.35 33 1.7 33 0 33 C0 22.11 0 11.22 0 0 Z " fill="#B2A876" transform="translate(434,749)"/>
<path d="M0 0 C7.51953125 -0.390625 7.51953125 -0.390625 10 0 C11.8359375 1.8515625 11.8359375 1.8515625 13 4 C12.75925978 7.37036311 12.41201979 8.58798021 10 11 C7.6171875 11.1953125 7.6171875 11.1953125 4.875 11.125 C2.461875 11.063125 2.461875 11.063125 0 11 C0 7.37 0 3.74 0 0 Z " fill="#18252F" transform="translate(662,754)"/>
<path d="M0 0 C1.60875 -0.04125 3.2175 -0.0825 4.875 -0.125 C5.77992188 -0.14820313 6.68484375 -0.17140625 7.6171875 -0.1953125 C10 0 10 0 12 2 C12.3125 5.5 12.3125 5.5 12 9 C7.7975546 11.80163026 4.99895065 11.14489712 0 11 C0 7.37 0 3.74 0 0 Z " fill="#131F2B" transform="translate(551,754)"/>
<path d="M0 0 C9.625 -0.25 9.625 -0.25 13 2 C13.3125 5 13.3125 5 13 8 C11 10 11 10 8.3984375 10.1953125 C7.40070313 10.17210937 6.40296875 10.14890625 5.375 10.125 C3.87066406 10.09792969 3.87066406 10.09792969 2.3359375 10.0703125 C1.56507813 10.04710937 0.79421875 10.02390625 0 10 C0 6.7 0 3.4 0 0 Z " fill="#16202B" transform="translate(212,767)"/>
<path d="M0 0 C3.96 0 7.92 0 12 0 C12.33 0.66 12.66 1.32 13 2 C9.7 2 6.4 2 3 2 C3 5.63 3 9.26 3 13 C9.78601097 12.49694684 9.78601097 12.49694684 16 10 C16.66 10.66 17.32 11.32 18 12 C18 8.37 18 4.74 18 1 C18.99 1.66 19.98 2.32 21 3 C21.54339321 7.73528366 21.70506185 9.8954031 19.125 13.9375 C15.67602897 17.28503071 13.58585719 17.1126155 8.875 17.0625 C7.77929688 17.05347656 6.68359375 17.04445313 5.5546875 17.03515625 C4.29011719 17.01775391 4.29011719 17.01775391 3 17 C3 16.67 3 16.34 3 16 C7.455 15.505 7.455 15.505 12 15 C11.28972656 14.93941406 10.57945312 14.87882813 9.84765625 14.81640625 C8.92855469 14.73261719 8.00945313 14.64882813 7.0625 14.5625 C5.68771484 14.44068359 5.68771484 14.44068359 4.28515625 14.31640625 C2 14 2 14 1 13 C0.76518307 10.81707226 0.58636677 8.62796826 0.4375 6.4375 C0.35371094 5.23996094 0.26992188 4.04242187 0.18359375 2.80859375 C0.12300781 1.88175781 0.06242188 0.95492187 0 0 Z " fill="#BCB17D" transform="translate(548,752)"/>
<path d="M0 0 C8.625 -0.25 8.625 -0.25 12 2 C12.3125 5 12.3125 5 12 8 C10 10 10 10 7.6171875 10.1953125 C6.71226562 10.17210937 5.80734375 10.14890625 4.875 10.125 C2.461875 10.063125 2.461875 10.063125 0 10 C0 6.7 0 3.4 0 0 Z " fill="#111D28" transform="translate(626,754)"/>
<path d="M0 0 C4.95 0 9.9 0 15 0 C14.67 0.66 14.34 1.32 14 2 C10.04 2 6.08 2 2 2 C2 3.98 2 5.96 2 8 C6.95 8 11.9 8 17 8 C17 10.31 17 12.62 17 15 C12.05 15 7.1 15 2 15 C2 17.31 2 19.62 2 22 C6.95 22 11.9 22 17 22 C17 22.33 17 22.66 17 23 C11.39 23 5.78 23 0 23 C0 20.03 0 17.06 0 14 C5.28 14 10.56 14 16 14 C16 12.35 16 10.7 16 9 C10.72 9 5.44 9 0 9 C0 6.03 0 3.06 0 0 Z " fill="#070C1B" transform="translate(777,754)"/>
<path d="M0 0 C-0.33 0.99 -0.66 1.98 -1 3 C-2.65 2.67 -4.3 2.34 -6 2 C-6 2.33 -6 2.66 -6 3 C-8.31 3 -10.62 3 -13 3 C-13 6.3 -13 9.6 -13 13 C-10.36 13 -7.72 13 -5 13 C-5 13.33 -5 13.66 -5 14 C-7.97 14 -10.94 14 -14 14 C-14.33 13.01 -14.66 12.02 -15 11 C-15 16.94 -15 22.88 -15 29 C-15.66 29 -16.32 29 -17 29 C-17 19.43 -17 9.86 -17 0 C-13.349375 -0.2784375 -13.349375 -0.2784375 -9.625 -0.5625 C-8.47765381 -0.65446655 -8.47765381 -0.65446655 -7.30712891 -0.74829102 C-2.22222222 -1.11111111 -2.22222222 -1.11111111 0 0 Z " fill="#908B69" transform="translate(639,751)"/>
<path d="M0 0 C1.65 0 3.3 0 5 0 C5 4.62 5 9.24 5 14 C4.67 14 4.34 14 4 14 C4 10.04 4 6.08 4 2 C3.34 2 2.68 2 2 2 C2.01160156 3.00417969 2.02320313 4.00835938 2.03515625 5.04296875 C2.10357351 13.74906531 1.83197085 22.32373255 1 31 C1.99 31 2.98 31 4 31 C4 26.71 4 22.42 4 18 C4.33 18 4.66 18 5 18 C5 22.95 5 27.9 5 33 C3.35 33 1.7 33 0 33 C0 22.11 0 11.22 0 0 Z " fill="#DACD8D" transform="translate(486,749)"/>
<path d="M0 0 C1.62463842 -0.05395478 3.24978541 -0.09277195 4.875 -0.125 C5.77992188 -0.14820313 6.68484375 -0.17140625 7.6171875 -0.1953125 C10 0 10 0 12 2 C11.44444444 6.55555556 11.44444444 6.55555556 10 8 C8.31391034 8.07205511 6.62499341 8.08386068 4.9375 8.0625 C4.01839844 8.05347656 3.09929687 8.04445313 2.15234375 8.03515625 C1.44207031 8.02355469 0.73179687 8.01195312 0 8 C0 5.36 0 2.72 0 0 Z " fill="#101A26" transform="translate(212,754)"/>
<path d="M0 0 C1.65 0 3.3 0 5 0 C5 8.25 5 16.5 5 25 C4.67 25 4.34 25 4 25 C4 17.41 4 9.82 4 2 C3.34 2 2.68 2 2 2 C2.01571045 2.60996826 2.0314209 3.21993652 2.04760742 3.84838867 C2.11019813 6.6279971 2.14906622 9.40745692 2.1875 12.1875 C2.22520508 13.62706055 2.22520508 13.62706055 2.26367188 15.09570312 C2.35493909 23.88777807 2.35493909 23.88777807 -1 28 C-1.66 27.67 -2.32 27.34 -3 27 C-2.01 25.515 -2.01 25.515 -1 24 C-0.63250611 21.38710506 -0.63250611 21.38710506 -0.5859375 18.45703125 C-0.54726563 17.38388672 -0.50859375 16.31074219 -0.46875 15.20507812 C-0.4378125 14.08552734 -0.406875 12.96597656 -0.375 11.8125 C-0.33632813 10.68134766 -0.29765625 9.55019531 -0.2578125 8.38476562 C-0.16347467 5.5900075 -0.07788348 2.79525722 0 0 Z " fill="#BCB07C" transform="translate(263,749)"/>
<path d="M0 0 C4.95 0 9.9 0 15 0 C15 0.33 15 0.66 15 1 C9.06 1.495 9.06 1.495 3 2 C2.10395632 8.04829486 1.88730557 13.8894576 2 20 C2.66 19.01 3.32 18.02 4 17 C4 19.97 4 22.94 4 26 C6.97 26 9.94 26 13 26 C13 26.33 13 26.66 13 27 C6.565 27.495 6.565 27.495 0 28 C0 18.76 0 9.52 0 0 Z " fill="#9F976C" transform="translate(208,751)"/>
<path d="M0 0 C0.33 0 0.66 0 1 0 C1 19.47 1 38.94 1 59 C0.67 59 0.34 59 0 59 C-0.33 41.51 -0.66 24.02 -1 6 C-1.99 6.495 -1.99 6.495 -3 7 C-1.125 1.125 -1.125 1.125 0 0 Z " fill="#1D2B35" transform="translate(307,622)"/>
<path d="M0 0 C0.33 0 0.66 0 1 0 C1 8.58 1 17.16 1 26 C1.66 26 2.32 26 3 26 C3 17.42 3 8.84 3 0 C3.33 0 3.66 0 4 0 C4 9.24 4 18.48 4 28 C2.35 28 0.7 28 -1 28 C-0.67 18.76 -0.34 9.52 0 0 Z " fill="#C9BA7F" transform="translate(461,754)"/>
<path d="M0 0 C5.28 0 10.56 0 16 0 C16 1.65 16 3.3 16 5 C9.07 5 2.14 5 -5 5 C-4.67 4.34 -4.34 3.68 -4 3 C1.94 3 7.88 3 14 3 C14 2.34 14 1.68 14 1 C9.38 1 4.76 1 0 1 C0 0.67 0 0.34 0 0 Z " fill="#B8AD7A" transform="translate(307,777)"/>
<path d="M0 0 C0.66 0 1.32 0 2 0 C2 9.57 2 19.14 2 29 C1.34 29 0.68 29 0 29 C-0.81826135 19.19345244 -1.09317357 9.82174407 0 0 Z " fill="#AAA172" transform="translate(509,751)"/>
<path d="M0 0 C0.33 0 0.66 0 1 0 C1 3.63 1 7.26 1 11 C3.97 11 6.94 11 10 11 C9.01 11.99 8.02 12.98 7 14 C8.98 16.97 8.98 16.97 11 20 C10.67 20.66 10.34 21.32 10 22 C9.484375 21.01 8.96875 20.02 8.4375 19 C7.633125 18.01 6.82875 17.02 6 16 C3.69 16 1.38 16 -1 16 C-0.67 10.72 -0.34 5.44 0 0 Z " fill="#BDB27E" transform="translate(624,754)"/>
<path d="M0 0 C2.18724032 1.17480594 4.00916104 2.49473152 6 4 C6.33 3.01 6.66 2.02 7 1 C8.5625 2.8125 8.5625 2.8125 10 5 C9.67 5.99 9.34 6.98 9 8 C8.67 8 8.34 8 8 8 C7.67 10.97 7.34 13.94 7 17 C6.67 17 6.34 17 6 17 C5.91363281 16.33613281 5.82726562 15.67226563 5.73828125 14.98828125 C5.05692582 10.70636869 4.35953503 7.56177349 2 3.875 C-2.29491607 1.19067746 -6.06586969 1.5688624 -11 2 C-8.76457128 -2.47085744 -4.09526483 -0.90234649 0 0 Z " fill="#C0B580" transform="translate(712,753)"/>
<path d="M0 0 C1.49080078 0.02707031 1.49080078 0.02707031 3.01171875 0.0546875 C3.77097656 0.07789063 4.53023437 0.10109375 5.3125 0.125 C5.3125 0.455 5.3125 0.785 5.3125 1.125 C2.0125 1.125 -1.2875 1.125 -4.6875 1.125 C-4.6875 5.085 -4.6875 9.045 -4.6875 13.125 C-6.0075 13.125 -7.3275 13.125 -8.6875 13.125 C-8.76836147 11.33406809 -8.82662702 9.54210372 -8.875 7.75 C-8.90980469 6.75226562 -8.94460938 5.75453125 -8.98046875 4.7265625 C-8.83544922 3.43878906 -8.83544922 3.43878906 -8.6875 2.125 C-5.26655758 -0.15562828 -4.00562778 -0.09425007 0 0 Z " fill="#A79F75" transform="translate(666.6875,768.875)"/>
<path d="M0 0 C0.66 0.33 1.32 0.66 2 1 C1.34 1.66 0.68 2.32 0 3 C0 3.99 0 4.98 0 6 C0.7425 5.154375 1.485 4.30875 2.25 3.4375 C3.1575 2.633125 4.065 1.82875 5 1 C7.3125 1.1875 7.3125 1.1875 9 2 C8.030625 2.4125 7.06125 2.825 6.0625 3.25 C2.87739901 4.64899168 2.87739901 4.64899168 2.125 7.1875 C2.08375 7.785625 2.0425 8.38375 2 9 C2.99 9.33 3.98 9.66 5 10 C4.01 10.33 3.02 10.66 2 11 C2.33 11.99 2.66 12.98 3 14 C1.125 13.6875 1.125 13.6875 -1 13 C-3.32579101 9.51131349 -3.41865457 8.10281481 -3 4 C-1.5 1.625 -1.5 1.625 0 0 Z " fill="#BEB27F" transform="translate(738,751)"/>
<path d="M0 0 C0.66 0 1.32 0 2 0 C2.02505615 0.56920166 2.0501123 1.13840332 2.07592773 1.72485352 C2.19293894 4.33757313 2.3151828 6.95002362 2.4375 9.5625 C2.47681641 10.45775391 2.51613281 11.35300781 2.55664062 12.27539062 C2.79332783 17.2458219 3.19821672 22.08823519 4 27 C2 27 2 27 0.37963867 25.84643555 C-1.54233907 23.27416203 -1.25912201 21.63400543 -1.07421875 18.45703125 C-1.01943359 17.38388672 -0.96464844 16.31074219 -0.90820312 15.20507812 C-0.83537109 14.08552734 -0.76253906 12.96597656 -0.6875 11.8125 C-0.62626953 10.68134766 -0.56503906 9.55019531 -0.50195312 8.38476562 C-0.34858501 5.58874697 -0.18072046 2.79436237 0 0 Z " fill="#A59B70" transform="translate(244,751)"/>
<path d="M0 0 C1.65 0 3.3 0 5 0 C4.67 7.26 4.34 14.52 4 22 C3.67 22 3.34 22 3 22 C3 15.4 3 8.8 3 2 C2.34 2 1.68 2 1 2 C1 9.26 1 16.52 1 24 C0.67 24 0.34 24 0 24 C0 16.08 0 8.16 0 0 Z " fill="#CCBF83" transform="translate(243,749)"/>
<path d="M0 0 C0.33 0 0.66 0 1 0 C0.39502042 6.06370342 -0.8633028 11.65514242 -2.5625 17.5 C-2.79646484 18.32242188 -3.03042969 19.14484375 -3.27148438 19.9921875 C-3.84242072 21.99629058 -4.42046705 23.99836591 -5 26 C-6.98 26 -8.96 26 -11 26 C-10.67 24.68 -10.34 23.36 -10 22 C-10 22.66 -10 23.32 -10 24 C-8.68 24 -7.36 24 -6 24 C-5.979375 22.741875 -5.95875 21.48375 -5.9375 20.1875 C-5.92589844 19.47980469 -5.91429687 18.77210938 -5.90234375 18.04296875 C-5.91736783 15.79694539 -5.91736783 15.79694539 -7 13 C-5.68 13 -4.36 13 -3 13 C-2.86722656 12.31292969 -2.73445313 11.62585938 -2.59765625 10.91796875 C-2.42105469 10.01691406 -2.24445313 9.11585938 -2.0625 8.1875 C-1.80146484 6.84751953 -1.80146484 6.84751953 -1.53515625 5.48046875 C-1 3 -1 3 0 0 Z " fill="#BDB17D" transform="translate(418,756)"/>
<path d="M0 0 C1.50156874 3.00313748 1.09281204 5.79067522 1.0625 9.125 C1.05347656 10.40632812 1.04445313 11.68765625 1.03515625 13.0078125 C1.02355469 13.99523437 1.01195312 14.98265625 1 16 C-0.65 16 -2.3 16 -4 16 C-3.91291962 13.89505699 -3.80474307 11.79097858 -3.6875 9.6875 C-3.62949219 8.51574219 -3.57148437 7.34398437 -3.51171875 6.13671875 C-2.98395232 2.9016314 -2.57619276 1.91315119 0 0 Z " fill="#A49C72" transform="translate(696,757)"/>
<path d="M0 0 C0.66 0.33 1.32 0.66 2 1 C2 1.66 2 2.32 2 3 C2.33 3.66 2.66 4.32 3 5 C1.68 6.65 0.36 8.3 -1 10 C-1 8.68 -1 7.36 -1 6 C-1.66 6 -2.32 6 -3 6 C-3.33 10.29 -3.66 14.58 -4 19 C-4.66 18.67 -5.32 18.34 -6 18 C-6.34829047 12.1951589 -6.25063466 8.0565428 -3 3 C-1.3125 1.125 -1.3125 1.125 0 0 Z " fill="#B7AD7E" transform="translate(697,752)"/>
<path d="M0 0 C2.64 0 5.28 0 8 0 C8 0.66 8 1.32 8 2 C6.02 2 4.04 2 2 2 C2 4.31 2 6.62 2 9 C4.64 9 7.28 9 10 9 C10 9.66 10 10.32 10 11 C6.7 11 3.4 11 0 11 C0 7.37 0 3.74 0 0 Z " fill="#0D1728" transform="translate(662,754)"/>
<path d="M0 0 C4.62 0 9.24 0 14 0 C14 0.33 14 0.66 14 1 C10.7 1 7.4 1 4 1 C3.87882813 1.81984375 3.75765625 2.6396875 3.6328125 3.484375 C3.46523438 4.56203125 3.29765625 5.6396875 3.125 6.75 C2.88136719 8.35101562 2.88136719 8.35101562 2.6328125 9.984375 C2 13 2 13 0 17 C0 11.39 0 5.78 0 0 Z " fill="#A59C6F" transform="translate(658,751)"/>
<path d="M0 0 C3.16115776 1.36983503 3.9927092 1.9890638 6 5 C6.3125 8 6.3125 8 6 11 C5.01 11.99 4.02 12.98 3 14 C3 10.7 3 7.4 3 4 C2.01 4.99 1.02 5.98 0 7 C-0.58201172 6.29423828 -0.58201172 6.29423828 -1.17578125 5.57421875 C-3.47502924 3.59007113 -5.21311811 3.31466837 -8.1875 2.8125 C-9.53908203 2.57466797 -9.53908203 2.57466797 -10.91796875 2.33203125 C-11.60503906 2.22246094 -12.29210937 2.11289062 -13 2 C-13 1.67 -13 1.34 -13 1 C-11.58376784 0.94552953 -10.16691809 0.90699492 -8.75 0.875 C-7.96109375 0.85179687 -7.1721875 0.82859375 -6.359375 0.8046875 C-3.79268059 1.0171622 -2.2083933 1.71345895 0 3 C0 2.01 0 1.02 0 0 Z " fill="#BBB07D" transform="translate(638,751)"/>
<path d="M0 0 C0.99 0.495 0.99 0.495 2 1 C2 2.32 2 3.64 2 5 C2.54140625 4.81566406 3.0828125 4.63132812 3.640625 4.44140625 C6.5926325 3.8891267 8.81415918 4.34334174 11.75 4.9375 C12.73484375 5.13214844 13.7196875 5.32679688 14.734375 5.52734375 C15.48203125 5.68332031 16.2296875 5.83929687 17 6 C16.67 6.66 16.34 7.32 16 8 C13.36 8 10.72 8 8 8 C8.33 8.33 8.66 8.66 9 9 C7.68 9.33 6.36 9.66 5 10 C0 4.5 0 4.5 0 0 Z " fill="#BCB27F" transform="translate(581,771)"/>
<path d="M0 0 C0.99 0 1.98 0 3 0 C3.125 7.75 3.125 7.75 2 10 C-0.97 9.505 -0.97 9.505 -4 9 C-3.67 7.02 -3.34 5.04 -3 3 C-2.34 3 -1.68 3 -1 3 C-0.67 2.01 -0.34 1.02 0 0 Z " fill="#A09871" transform="translate(410,770)"/>
<path d="M0 0 C4.95 0 9.9 0 15 0 C14.67 0.66 14.34 1.32 14 2 C10.04 2 6.08 2 2 2 C2 4.31 2 6.62 2 9 C1.34 9 0.68 9 0 9 C0 6.03 0 3.06 0 0 Z " fill="#0C1526" transform="translate(777,754)"/>
<path d="M0 0 C1.66611905 -0.042721 3.33382885 -0.04063832 5 0 C6 1 6 1 6.0625 3.5625 C6.041875 4.366875 6.02125 5.17125 6 6 C5.34 6 4.68 6 4 6 C4 8.31 4 10.62 4 13 C1.27835324 10.27835324 0.89427524 7.70485455 0 4 C0 2.68 0 1.36 0 0 Z " fill="#BBAF7B" transform="translate(379,749)"/>
<path d="M0 0 C1.65 0 3.3 0 5 0 C5 4.62 5 9.24 5 14 C4.67 14 4.34 14 4 14 C4 10.04 4 6.08 4 2 C3.34 2 2.68 2 2 2 C2 7.28 2 12.56 2 18 C1.67 18 1.34 18 1 18 C0.67 12.06 0.34 6.12 0 0 Z " fill="#C8BE82" transform="translate(486,749)"/>
<path d="M0 0 C1.2065625 0.0309375 1.2065625 0.0309375 2.4375 0.0625 C2.1075 2.7025 1.7775 5.3425 1.4375 8.0625 C-0.2125 8.0625 -1.8625 8.0625 -3.5625 8.0625 C-3.60491723 5.72955225 -3.60342937 3.39547433 -3.5625 1.0625 C-2.5625 0.0625 -2.5625 0.0625 0 0 Z " fill="#B2A878" transform="translate(418.5625,748.9375)"/>
<path d="M0 0 C8.19256018 0.35010941 8.19256018 0.35010941 11.5625 3.0625 C12.036875 3.701875 12.51125 4.34125 13 5 C12.01 6.485 12.01 6.485 11 8 C6.125 6.25 6.125 6.25 5 4 C5.66 3.67 6.32 3.34 7 3 C4.69 2.34 2.38 1.68 0 1 C0 0.67 0 0.34 0 0 Z " fill="#BAAF7D" transform="translate(745,749)"/>
<path d="M0 0 C1.875 0.3125 1.875 0.3125 4 1 C6.32579101 4.48868651 6.41865457 5.89718519 6 10 C4.5 12.375 4.5 12.375 3 14 C2.34 13.67 1.68 13.34 1 13 C1.66 12.34 2.32 11.68 3 11 C3.16677282 7.41656024 3.16677282 7.41656024 3 4 C2.34 5.32 1.68 6.64 1 8 C0.26919734 6.02253397 -0.39421747 4.01927511 -1 2 C-0.67 1.34 -0.34 0.68 0 0 Z " fill="#C1B57E" transform="translate(225,766)"/>
<path d="M0 0 C0.99 0.33 1.98 0.66 3 1 C3 4.96 3 8.92 3 13 C1.68 13 0.36 13 -1 13 C-0.67 12.01 -0.34 11.02 0 10 C0.06802967 8.27204648 0.08495645 6.54164635 0.0625 4.8125 C0.05347656 3.91144531 0.04445313 3.01039063 0.03515625 2.08203125 C0.02355469 1.39496094 0.01195312 0.70789063 0 0 Z " fill="#AFA475" transform="translate(548,769)"/>
<path d="M0 0 C0.75 1.6875 0.75 1.6875 1 4 C-1.13381449 7.2769294 -2.25018012 8.75006004 -6 10 C-7.72795352 10.06802967 -9.45835365 10.08495645 -11.1875 10.0625 C-12.53908203 10.04896484 -12.53908203 10.04896484 -13.91796875 10.03515625 C-14.60503906 10.02355469 -15.29210937 10.01195312 -16 10 C-16 9.67 -16 9.34 -16 9 C-11.545 8.505 -11.545 8.505 -7 8 C-6.34 6.35 -5.68 4.7 -5 3 C-4.67 3.99 -4.34 4.98 -4 6 C-1.2160817 4.60804085 -1.02101003 2.84424221 0 0 Z " fill="#C1B57E" transform="translate(759,772)"/>
<path d="M0 0 C0.99 0 1.98 0 3 0 C2.88601335 1.62580966 2.75844341 3.25067157 2.625 4.875 C2.55539062 5.77992188 2.48578125 6.68484375 2.4140625 7.6171875 C2 10 2 10 0 12 C-0.99 11.67 -1.98 11.34 -3 11 C-2.69217504 9.35328588 -2.37860766 7.70764424 -2.0625 6.0625 C-1.88847656 5.14597656 -1.71445312 4.22945312 -1.53515625 3.28515625 C-1 1 -1 1 0 0 Z " fill="#A89F74" transform="translate(720,760)"/>
<path d="M0 0 C1.98 0 3.96 0 6 0 C6 1.65 6 3.3 6 5 C4.34385343 5.38218767 2.67542976 5.71395102 1 6 C0 5 0 5 -0.0625 2.4375 C-0.041875 1.633125 -0.02125 0.82875 0 0 Z " fill="#BEB27F" transform="translate(807,776)"/>
<path d="M0 0 C0.99 0.33 1.98 0.66 3 1 C2.67 1.99 2.34 2.98 2 4 C-1.2124457 5.21224366 -3.86071557 6.09237441 -7.3125 5.8125 C-9 5 -9 5 -11 2 C-8 1 -8 1 -5 2 C-3.33378384 2.03874921 -1.66605828 2.0450286 0 2 C0 1.34 0 0.68 0 0 Z " fill="#A79D74" transform="translate(597,776)"/>
<path d="M0 0 C0.33 0 0.66 0 1 0 C1 2.97 1 5.94 1 9 C3.97 9 6.94 9 10 9 C10 9.33 10 9.66 10 10 C3.565 10.495 3.565 10.495 -3 11 C-2.25 3.375 -2.25 3.375 0 0 Z " fill="#8F8B6D" transform="translate(211,768)"/>
<path d="M0 0 C1.64826111 2.96687001 2.44271087 5.65626525 3 9 C1.125 10.0625 1.125 10.0625 -1 11 C-1.66 10.67 -2.32 10.34 -3 10 C-3 9.34 -3 8.68 -3 8 C-2.34 8 -1.68 8 -1 8 C-1.33 6.02 -1.66 4.04 -2 2 C-1.34 2 -0.68 2 0 2 C0 1.34 0 0.68 0 0 Z " fill="#A19A71" transform="translate(388,765)"/>
<path d="M0 0 C0.99 0 1.98 0 3 0 C4.60080151 4.00200378 3.29279692 7.04556236 2 11 C-0.7865517 8.2134483 -0.65662895 5.84575573 -1 2 C-0.67 1.34 -0.34 0.68 0 0 Z " fill="#A9A073" transform="translate(676,753)"/>
<path d="M0 0 C-0.99 0.495 -0.99 0.495 -2 1 C-2 1.66 -2 2.32 -2 3 C-8.93 2.505 -8.93 2.505 -16 2 C-16 1.34 -16 0.68 -16 0 C-10.47032059 -0.71033431 -5.50016964 -1.30267176 0 0 Z " fill="#B4AB7C" transform="translate(678,752)"/>
<path d="M0 0 C0.33 1.32 0.66 2.64 1 4 C-1.72842061 5.36421031 -3.60953318 4.87807211 -6.625 4.5625 C-7.62789062 4.46066406 -8.63078125 4.35882812 -9.6640625 4.25390625 C-10.43492187 4.17011719 -11.20578125 4.08632813 -12 4 C-12 3.34 -12 2.68 -12 2 C-10.95199219 1.90912109 -10.95199219 1.90912109 -9.8828125 1.81640625 C-8.97273437 1.73261719 -8.06265625 1.64882813 -7.125 1.5625 C-6.22007812 1.48128906 -5.31515625 1.40007813 -4.3828125 1.31640625 C-1.98889139 1.13010715 -1.98889139 1.13010715 0 0 Z " fill="#A59D71" transform="translate(674,764)"/>
<path d="M0 0 C2.475 0.495 2.475 0.495 5 1 C5.33 1.99 5.66 2.98 6 4 C4.68 4.33 3.36 4.66 2 5 C1.67 7.64 1.34 10.28 1 13 C0.67 13 0.34 13 0 13 C0 8.71 0 4.42 0 0 Z " fill="#0A1221" transform="translate(626,769)"/>
<path d="M0 0 C2.475 0.495 2.475 0.495 5 1 C5 1.99 5 2.98 5 4 C4.34 4 3.68 4 3 4 C3.33 5.98 3.66 7.96 4 10 C3.34 10 2.68 10 2 10 C0.39644899 6.49223216 -0.22036864 3.85645121 0 0 Z " fill="#B9AD7C" transform="translate(383,763)"/>
<path d="M0 0 C0.33 0 0.66 0 1 0 C1.28571429 8.57142857 1.28571429 8.57142857 -1 12 C-2.32 10.68 -3.64 9.36 -5 8 C-4.54625 7.608125 -4.0925 7.21625 -3.625 6.8125 C-1.72357081 4.69167513 -0.93795972 2.66957765 0 0 Z " fill="#111926" transform="translate(230,756)"/>
<path d="M0 0 C3.35595828 0.59927826 5.37801226 1.84622436 8 4 C7.67 4.99 7.34 5.98 7 7 C6.01 6.01 5.02 5.02 4 4 C3.01 4.495 3.01 4.495 2 5 C0.32345271 4.72057545 -1.34608154 4.39171753 -3 4 C-2.01 2.68 -1.02 1.36 0 0 Z " fill="#BAAF7C" transform="translate(751,764)"/>
<path d="M0 0 C1.65 0 3.3 0 5 0 C5 0.66 5 1.32 5 2 C5.66 2 6.32 2 7 2 C6.34 3.32 5.68 4.64 5 6 C3.0625 5.25 3.0625 5.25 1 4 C0.25 1.875 0.25 1.875 0 0 Z " fill="#A79F74" transform="translate(739,761)"/>
<path d="M0 0 C0.66 0 1.32 0 2 0 C2 2.31 2 4.62 2 7 C0.68 7.33 -0.64 7.66 -2 8 C-2 4.23312136 -1.76462683 3.08809695 0 0 Z " fill="#AAA072" transform="translate(640,759)"/>
<path d="M0 0 C2.97 0.495 2.97 0.495 6 1 C6 1.66 6 2.32 6 3 C3.69 3.33 1.38 3.66 -1 4 C-0.67 2.68 -0.34 1.36 0 0 Z " fill="#A9A073" transform="translate(251,778)"/>
<path d="M0 0 C2.66666667 0.66666667 5.33333333 1.33333333 8 2 C7.34 3.32 6.68 4.64 6 6 C1.125 3.375 1.125 3.375 0 0 Z " fill="#AAA073" transform="translate(695,774)"/>
<path d="M0 0 C0.99 0.99 1.98 1.98 3 3 C2.34 3 1.68 3 1 3 C0.67 4.32 0.34 5.64 0 7 C-0.33 5.68 -0.66 4.36 -1 3 C-2.65 2.67 -4.3 2.34 -6 2 C-5.38125 1.855625 -4.7625 1.71125 -4.125 1.5625 C-1.96741678 1.06847775 -1.96741678 1.06847775 0 0 Z " fill="#AFA77A" transform="translate(755,767)"/>
<path d="M0 0 C0.33 0 0.66 0 1 0 C1.144375 0.928125 1.28875 1.85625 1.4375 2.8125 C1.92100111 6.00725111 1.92100111 6.00725111 3 9 C2.0625 11.1875 2.0625 11.1875 1 13 C-0.32229189 10.35541621 -0.09677194 8.32238699 -0.0625 5.375 C-0.05347656 4.37210938 -0.04445313 3.36921875 -0.03515625 2.3359375 C-0.02355469 1.56507813 -0.01195312 0.79421875 0 0 Z " fill="#1E2C36" transform="translate(370,637)"/>
<path d="M0 0 C2.31 0.33 4.62 0.66 7 1 C7 1.99 7 2.98 7 4 C6.01 4.495 6.01 4.495 5 5 C4.01 4.34 3.02 3.68 2 3 C2.33 2.67 2.66 2.34 3 2 C2.01 1.34 1.02 0.68 0 0 Z " fill="#A09973" transform="translate(705,777)"/>
<path d="M0 0 C1.32 0.33 2.64 0.66 4 1 C3.34 1 2.68 1 2 1 C1.896875 1.5775 1.79375 2.155 1.6875 2.75 C0.90207202 5.32049158 -0.30504197 6.93657284 -2 9 C-2.20140476 5.37471432 -1.85776765 3.13498292 0 0 Z " fill="#ABA276" transform="translate(739,750)"/>
</svg>
